<svg width="15px" height="16px" viewBox="0 0 15 16" version="1.1" xmlns="http://www.w3.org/2000/svg" xmlns:xlink="http://www.w3.org/1999/xlink">
    <defs></defs>
    <g id="Conversation-Demo----Desktop" stroke="none" stroke-width="1" fill="none" fill-rule="evenodd">
        <g id="1056_Conversation_Demo_Slots_Features_Flow_Desktop_frame-08" transform="translate(-576.000000, -240.000000)" fill="#000000" fill-rule="nonzero">
            <g id="calendar" transform="translate(574.000000, 239.000000)">
                <g id="Icon" transform="translate(2.375000, 1.187500)">
                    <path d="M13.0625,1.1875 L10.6875,1.1875 L10.6875,0 L9.5,0 L9.5,1.1875 L4.75,1.1875 L4.75,0 L3.5625,0 L3.5625,1.1875 L1.1875,1.1875 C0.53166186,1.1875 0,1.71916186 0,2.375 L0,14.25 C0,14.9058381 0.53166186,15.4375 1.1875,15.4375 L13.0625,15.4375 C13.7183381,15.4375 14.25,14.9058381 14.25,14.25 L14.25,2.375 C14.25,1.71916186 13.7183381,1.1875 13.0625,1.1875 Z M13.0625,14.25 L1.1875,14.25 L1.1875,5.9375 L13.0625,5.9375 L13.0625,14.25 Z M13.0625,4.75 L1.1875,4.75 L1.1875,2.375 L3.5625,2.375 L3.5625,3.5625 L4.75,3.5625 L4.75,2.375 L9.5,2.375 L9.5,3.5625 L10.6875,3.5625 L10.6875,2.375 L13.0625,2.375 L13.0625,4.75 Z" id="Shape"></path>
                </g>
            </g>
        </g>
    </g>
</svg>
