<svg xmlns="http://www.w3.org/2000/svg" viewBox="0 0 32 32"><defs><style>.cls-1{fill:none;}</style></defs><title>refined_icons_IB</title><g id="Icon"><path d="M23,20a4.9693,4.9693,0,0,0-3.8876,1.8912l-7.3115-4.5694a4.4871,4.4871,0,0,0,0-2.6436l7.3115-4.5694a5.2014,5.2014,0,1,0-.9134-1.7873l-7.3113,4.57a5,5,0,1,0,0,6.2173l7.3113,4.57A4.9479,4.9479,0,0,0,18,25a5,5,0,1,0,5-5ZM23,4a3,3,0,1,1-3,3A3,3,0,0,1,23,4ZM7,19a3,3,0,1,1,3-3A3,3,0,0,1,7,19Zm16,9a3,3,0,1,1,3-3A3,3,0,0,1,23,28Z"/></g><g id="Transparent_Rectangle" data-name="Transparent Rectangle"><rect class="cls-1" width="32" height="32"/></g></svg>